<svg width="124" height="80" viewBox="0 0 124 80" fill="none" xmlns="http://www.w3.org/2000/svg">
<rect width="124" height="80" rx="6" fill="#F0F4FF"/>
<rect x="21" y="13" width="16" height="16" rx="2" fill="#C2D4FF"/>
<rect x="21" y="32" width="16" height="4" rx="2" fill="#336DF4"/>
<rect x="21" y="44" width="16" height="16" rx="2" fill="#C2D4FF"/>
<rect x="21" y="63" width="16" height="4" rx="2" fill="#336DF4"/>
<rect x="54" y="13" width="16" height="16" rx="2" fill="#C2D4FF"/>
<rect x="54" y="32" width="16" height="4" rx="2" fill="#336DF4"/>
<rect x="54" y="44" width="16" height="16" rx="2" fill="#C2D4FF"/>
<rect x="54" y="63" width="16" height="4" rx="2" fill="#336DF4"/>
<rect x="87" y="13" width="16" height="16" rx="2" fill="#C2D4FF"/>
<rect x="87" y="32" width="16" height="4" rx="2" fill="#336DF4"/>
<rect x="87" y="44" width="16" height="16" rx="2" fill="#C2D4FF"/>
<rect x="87" y="63" width="16" height="4" rx="2" fill="#336DF4"/>
</svg>
